# xmcd
#
# Track frame offsets: 
#        150
#        13556
#        27836
#        41511
#        54269
#        64761
#        78195
#        92186
#        107072
#        119360
#        133432
#        145805
#        159074
#        172224
#        182545
#        193327
#        203590
#        214474
#        227313
#        237605
#
# Disc length: 3328 seconds
#
# Revision: 0
# Processed by: cddbd v1.5.2PL0 Copyright (c) Steve Scherf et al.
# Submitted via: ExactAudioCopyFreeDBPlugin 1.0
#
DISCID=150cfe14
DTITLE=Muddy Waters - The Absolutely Essential Collection [CD3)
DYEAR=1900
DGENRE=Soul
TTITLE0=Mannish Boy
TTITLE1=Rock Me
TTITLE2=Come Home Baby (I Wish You Would)
TTITLE3=I Live The Life I Love (I Love The Life I Live)
TTITLE4=Evil
TTITLE5=I Won't Go On
TTITLE6=Close To You
TTITLE7=She's Nineteen Years Old
TTITLE8=Walkin' Thru The Park
TTITLE9=Take The Bitter With The Sweet
TTITLE10=She's Into Something
TTITLE11=Recipe For Love
TTITLE12=I Feel So Good
TTITLE13=I'm Your Doctor
TTITLE14=Look What You've Done
TTITLE15=Tiger In Your Tank
TTITLE16=Meanest Woman
TTITLE17=Woman Wanted
TTITLE18=Messin' With The Man
TTITLE19=You Shook Me
EXTD=
EXTT0=
EXTT1=
EXTT2=
EXTT3=
EXTT4=
EXTT5=
EXTT6=
EXTT7=
EXTT8=
EXTT9=
EXTT10=
EXTT11=
EXTT12=
EXTT13=
EXTT14=
EXTT15=
EXTT16=
EXTT17=
EXTT18=
EXTT19=
PLAYORDER=
